<?xml version="1.0" encoding="utf-8"?>
<!-- Generator: Adobe Illustrator 27.3.1, SVG Export Plug-In . SVG Version: 6.00 Build 0)  -->
<svg version="1.1" id="Layer_1" xmlns="http://www.w3.org/2000/svg" xmlns:xlink="http://www.w3.org/1999/xlink" x="0px" y="0px"
	 viewBox="0 0 1024 768" style="enable-background:new 0 0 1024 768;" xml:space="preserve">
<style type="text/css">
	.st0{fill-rule:evenodd;clip-rule:evenodd;fill:#FF900B;}
	.st1{fill-rule:evenodd;clip-rule:evenodd;}
</style>
<g id="Illustrations_x2F_coffee">
	<path stroke="currentColor" fill="none" id="Accent" class="st0" d="M333.6,378.6c3.5-2.4,10.8-10.9,14.6-12.8c8.4-4.4,46.1-12.9,47.3-13.5c1.9-0.8,14-3.5,21-5.2
		c16.6-4,75.9-29.9,91.5-36.5c2,5.2,18.5,27.9,15.6,30.3c-9.3,7.7-26,17.3-36.8,22.8c-8.7,4.5-18,8.1-27.3,11.2
		c-10.6,3.4-17.9,7.1-28.4,10.6c-10.4,3.4,2,14.2,7.4,16.4c6,2.5,15.2,3.8,21.3,5.9c-10.8,16.4-19.8,36.4-21.6,56
		c-0.4,4.7-4.1,9.1-10.1,7.7c-3.1-0.7-31.5-4.5-36.2-5.5c-31-6.9-86.6-43.3-72.2-80.5C323.1,386.9,330.5,380.7,333.6,378.6z"/>
	<g id="Ink" transform="translate(54.000000, 30.000000)">
		<path stroke="currentColor" fill="none" id="ink-layer" class="st1" d="M296.9,150.9c2.3-0.2,8.3-4.7,5.2-7C298.9,141.6,296.6,149.3,296.9,150.9 M176.4,168.3
			c0.6-0.1,0.3-3.4-0.6-3.8c-3-1.3-3.3,3.6-3.3,4.9c-0.1,1.7-0.3,6.4,3.4,5.1C177.9,173.8,176.6,169.6,176.4,168.3 M353.8,183.5
			c-0.1,2.9,5.9,8.5,8.1,5.1C363.8,185.8,354,177.7,353.8,183.5 M142.8,118.1c1.7,4.3,10.3-1.6,10.6-4.8
			C154.1,106.8,142.7,113.7,142.8,118.1 M214.2,136.7c4-0.3,9.2-5.3,13.1-7.2c2.6-1.3,9.7-2.8,10.4-5.6c0.7-2.5-11.3,2.8-12.4,3.3
			C220.6,129.4,216.4,131.9,214.2,136.7 M513.1,102.4c3.2-2.4,7-4,11.1-3.9c2,0.1,6.3,1.3,6.4-2.2c0.3-5.6-17.7,1.2-20.5,2.3
			C511.2,100,512.2,101.2,513.1,102.4 M315.1,321.2c-2.3-3.8-6.5-6-9.7-9.2c1.2,5.3-1.4,10.1-3.2,14.9
			C306.5,325,310.8,323.1,315.1,321.2 M719.5,402.2c1.3-4.2,2.6-8.4,4.1-12.6c1.7-4.7,2.5-5.1-1.5-8.3c-3.3,6.2-6.7,12.4-10,18.6
			C714.4,400.9,716.9,401.9,719.5,402.2 M374.3,96.7c-4.4-4.9-25.1-5.2-22.6,5.6c0.9,3.8,6-0.2,9.2-1.1
			C364.1,100.4,373.1,100.2,374.3,96.7 M373.6,166c-0.5-1.2-1.6-5.8-3.2-6.1c-1.5-0.3-7.6,4.4-8.8,5.1c-5.7,3.6-11.3,7.5-16.9,11.3
			c2.1,0,4.1-0.7,6.2-0.8c2.5,0,4.3,1,6.8,0.4C363,174.7,369.1,168.9,373.6,166 M379.3,54.4c0.5-2.2,26.4,4.5,29.5,5.7
			c1.7,0.7,10.4,5.1,8.6-1.6c-1.1-3.8-11.2-6.8-14.4-7.8c-8.2-2.7-16.9-4.6-25.7-4.1c-1.7,0.1-14.6,0.8-9.2,5.9
			C369.9,54.2,376.5,53.7,379.3,54.4 M384.9,361.8c4.8,2.3,9.7,4.1,14.8,5.9c2.2,0.8,5.7,2.9,8.2,2.4c2-0.4,2.7-3.5,3.7-5.5
			c3.9-7.4,8.5-13.4,14.3-19.5c-2.7-1.9-16.2,6.5-19.6,7.8c-3.4,1.2-6.5,2.5-9.8,4C393.4,358.3,387.3,359.5,384.9,361.8
			 M470.3,298.6c7-3.1,13.7-8.7,19.4-13.6c6.6-5.7,12.5-11.7,17.4-19c-2.9,0.1-9.3,9.4-9.4-0.7c0-5.1,7.1-10.2,9.3-14.9
			c-5.5-3.1-10.6,15.2-16.9,10.8c-6.1-4.3,3.5-18.9,5.4-23.6c-3.6-2.3-23.9,23.8-26.9,27.1c-1.8,2.1-6.2,4.9-7.2,7.3
			c-0.6,1.5-0.7,6.1-0.4,7.4c0.6,2.8,3.8,6.1,5.2,8.7C468,291.5,469.5,294.9,470.3,298.6 M760.8,392.8c-6.1-8.4,0.2-12.1,5.1-19.1
			c4-5.6,7.6-11.8,10.1-18c6.3-15.6,11.9-30.2,15-46.7c-4.3,1.9-6.9,9.2-9,13c-2.9,5.1-5.4,10.6-8.6,15.5
			c-6,9.3-11.8,19.3-19.4,27.4c-3.4,3.7-6.3,7.8-10.3,11.1c-1.8,1.5-5.3,2.7-6.6,4.6c-1.3,1.8,0.1,2.9-0.3,5
			c-0.5,2.2-2.7,4.5-3.7,6.6c-1.3,2.8-2.4,5.5-3.9,8.2c-1.5,2.9-2,4.5-2.4,7.4c-0.5,3.1,0.9,3.5-1.9,6.4c5.1,2.2,10.1,4.4,15.2,6.6
			c1.7,0.7,3.4,1.5,5.1,2.2c0.4-0.7,0.7-1.3,1.1-2c1.4-1.3,2.7-4.6,3.5-6.4C753.2,407.4,757,400.1,760.8,392.8 M271.3,357.4
			c-14.4,37.2,36.2,68.6,67.3,75.5c4.3,1,8.5,2.2,12.8,3.2c4.7,1.1,8.8,0.9,13.5,1.4c3.7,0.4,5.5,3.2,9,4c5.9,1.3,5.5-3,5.9-7.7
			c1.8-19.6,12-38.6,22.8-55c-4.9-1.7-9.8-3.6-14.7-5.5c-4.2-1.6-10.5-6.2-15-6.4c-3.3-0.2-8.4,2.6-11.6,3.8
			c-5.4,2-10.7,3.8-16.3,5.1c-9.8,2.4-20.6,5.7-30.7,6c-2.9,0.1-10.9,1.4-13-0.4c-4-3.4,1.6-6.2,4.9-7.4
			c19.9-7.2,41.1-10.2,61.1-17.6c10.3-3.8,20.5-8,30.8-11.7c8.9-3.2,18.3-6.1,26.9-10c11.4-5.2,22.8-11.7,32.7-19.4
			c2-1.5,6.1-3.8,7.5-6c1.2-2,1,0,0.8-2.4c-0.2-1.7-2.3-4-3.2-5.6c-3.2-6-6.2-12.2-8.7-18.5c-15.7,6.6-30.7,15.7-46.2,22.7
			c-15.6,7.1-33.2,12.2-49.9,16.2c-7.1,1.7-15.3,2.2-21.8,5.6c-2.8,1.4-5.5,3.1-8.5,3.9c-0.9,1.7-1.7,2-2.6,1
			c-0.5-0.6-1.2-0.8-2.1-0.7c-1.8,0.3-3.7,1.1-5.4,1.8c-8.6,3.3-16.8,7.4-25,11.5c-3.9,2-7.8,3.9-11.5,6.2c-2,1.2-3.8,2.4-5.4,4.1
			C274,357.2,274.5,358.9,271.3,357.4 M595.2,136.4c3.6,0.1,7-1.9,10.7-1.8c6,0.2,10.7,4.7,14.1,9.1c6.8,8.7,5.1,19.1,1.7,28.8
			c-1.6,4.6-3.9,9.1-6.7,13.1c-2.5,3.6-7,7-8.7,11c-2.9,6.6,2.9,3.8,6.5,2.4c4.5-1.8,8.7-4,12.5-6.9c16.9-13.2,29.8-31.6,34.1-52.7
			c2.1-10.3,1.9-22.4-5.4-30.8c-6.7-7.7-18.2-10.2-28.1-8.8c-10.7,1.5-20.3,6-29,11.7c-2.5,1.7-4.8,3.5-7.2,5.3
			c-3.1,2.4-5,2.5-4.2,6.3c0.6,2.8,2.1,5.8,3.2,8.5C590.6,136.7,589.9,138.1,595.2,136.4 M606.8,224.2l-0.7,1.2
			c5.1,0.2,9.8-4.2,14.1-6.3c5.6-2.8,10.6-6.6,15.5-10.4c8.7-6.8,17.5-14.4,23.9-23.3c14.5-19.9,27.6-45.2,23.7-70.5
			c-4.3-27.3-28.5-37.7-54.4-34.1c-11.7,1.6-22.1,6.7-32.5,11.9c-5.3,2.6-9.7,6-14.5,9.3c-2.5,1.7-4.8,1.9-4.9,4.9
			c-0.1,2.2,3.8,7.3,4.9,9.4c13.1-13.1,27.2-24,47-24.6c23.5-0.8,37.4,21.1,37.3,42.1c-0.1,20.6-9.1,40.4-23.5,55.2
			c-6.5,6.7-12.8,12.1-20.8,17c-4,2.4-7,4.6-11.4,6.3c-3.2,1.1-2.8,0.5-3.6,3.4C606,218,606.7,221.7,606.8,224.2 M479,503.8
			c-0.3,3.7-1.1,7.4-1.9,11c-0.3,1.3-2,5.4-1.7,6.9c0.5,2.4-0.2,0.9,2,2.1c2.2,1.3,4.9,1.2,7.3,1.6c1.5,0.2,7.1,2.8,8,2.4
			c1.6-0.7,1.6-3.2,3.4-4.2c2.4-1.4,6-0.2,8.4,0.9c6.2,2.8,10.4,8.7,16.4,11.9c10.6,5.7,23.2,8.8,35,10.1c6.4,0.7,13,1.9,19.3,0.5
			c5-1.2,11.5-1.1,14.2-6.3c-24.1-6.5-60.8-14.5-70.3-41.6c-5.2,4.6-13.8,2.1-20.1,1.5c-6.9-0.7-13-0.5-19.3-3.6
			C479,499.4,478.8,501.4,479,503.8 M265.9,335.8c11.3,0.7,22.1-4.6,29-13.5c1.7-2.2,3.5-4.4,4.5-7c0.2-0.7,0.4-1.3,0.7-2
			c1.1-1.8,0.6-2.7-1.4-2.6c-1.1-1.5-4-2.1-3.2-4.8c0.6-2.1,2.9-2.1,4.9-2.8c-1-1.6-1.6-2.5-3-3.9c-3.7,3.3-10.4,9.7-13,2.2
			c-1.2-3.6,0.9-7,0.4-10.5c-0.2-1.4-2.1-5.1-3.1-6c-5.7-4.6-13.9-2.7-20,0c-4.2,1.9-5.1,2.7-5.8,7c-0.7,4.3-1.3,8.6-2.1,12.9
			c2.5-1.3,3-4.1,4.6-6c0.6,1.1,1.2,2.2,1.8,3.3c0.9-0.5,1.7-0.5,2.4,0.1c1.2,1.8,0.4,4.5,0.1,6.4c4-0.4,5.7,4,1.7,5.8
			c-4.2,1.9-6.1-3.2-6.3-6.5c-1.6,1.8-3.2,0.9-4.3,1.8c-1.1,0.9-1.5,2.9-1.9,5.1c-0.6,3.6-2.3,8.7-0.8,12.2
			C253.5,332.4,260.6,335.2,265.9,335.8 M594.1,165.8c-3.7,5.1-10.1,11.8-11.5,18c4.1-2.4,12.9-13.8,15.1-4.7
			c1.3,5.2-5.3,11.5-7,16.5c6.5-2.1,11.1-8.7,15.2-13.8c5.2-6.5,10.5-15,11.8-23.3c1.1-6.7-3.6-12.9-10.6-13.5
			c-3.6-0.3-7.3,0.2-10.8,1c-1.6,0.4-3.9,0.8-5.3,1.7c-1.8,1-2,3.5-3.7,1.5c-2.2,4.1-4.4,8.2-6.6,12.3c2.2-0.8,6.7-4.1,9.1-3.8
			C593.4,158.2,594.1,163.2,594.1,165.8 M243.2,65.6c-9.8,0.3-20.1,2.3-29.4,5.4c-2.3,0.8-12.1,3.5-10,7.4c1.4,2.6,8.7-1.1,10.9-1.7
			c9.5-2.6,19.2-4.3,28.9-5.9c2.4-0.4,10.3-0.3,10.7-3.4C254.9,63.8,246,65.6,243.2,65.6 M510.6,486.9c-5.3,0.6-10.4,0.4-15.8-0.2
			c-4.5-0.5-9.1-2.3-13.5-2.3c0,4.7-0.3,4.7,4.7,5.7c3.5,0.7,7.1,1.1,10.6,1.6c6.3,0.9,13.2,3.3,19.5,2c-0.2-0.8-0.6-6.3-1.3-6.9
			C514.6,486.5,511.2,486.9,510.6,486.9 M424.6,139.5c1.5,0.9,4.9,4.6,6.7,4.7c-0.6-4.3-5.5-11.8-11.1-9.1c-1.4,0.7-4.3,3.9-3,5.3
			C417.9,141.2,422.7,139.5,424.6,139.5 M372.6,177.8c0.1-0.7,0.1-1.5,0.2-2.2c-2.1,1.2-4.6,1.8-6.1,3.7c1.8,0.8,3.5,1.5,5.3,2.3
			C372.2,180.3,372.4,179,372.6,177.8 M534.8,292c9.7,3.3,18.6,7.8,25.8,15.4c6.2,6.6,9.1,18.1,10.6,26.7c3.7,21.3-3.5,41-8.2,61.4
			c-2.4,10.3-6,20.3-9.4,30.3c-2.9,8.8-5.5,18-9.5,26.3c-3.4,7.1-7.9,14.1-10.9,21.4c-1.6,4-4.3,17.5-10.5,13.3
			c-1.7,4.3-2.1,4-0.3,7c1.3,2.2,5.7,5.2,7.8,7c5.6,4.7,12.6,8.6,19.2,12c12,6.1,24.8,10.6,37.2,16.2c5.5,2.5,11.4,5.3,10.2,12.4
			c-1,5.9-4.5,10.3-9.9,13c-5.1,2.5-12.3,4.4-17.9,5.1c-3.3,0.5-4.1-0.9-6.8-1.4c-3-0.5-6.5,0.5-9.6,0.5
			c-13.9-0.1-26.1-3.6-37.3-11.5c-4-2.8-9.9-10.5-15.2-10.5c-2.7,0-2.1,1.6-4.5,2.5c-2.9,1.2-7.9-1-10.8-1.5
			c-6.1-1.1-12.3-2.2-16.4-7.4c-4.4-5.6-2.8-12.5-0.9-18.7c2.1-7,5.7-14.1,7.2-21.2c0.4-1.7,0.7-4.9,0.3-6.7
			c-0.6-2.7-3.4-4.4-3.5-7.3c0-0.9,1.3-2.1,1.5-3c0.5-2,0.4-4.1,0.6-6.2c0.4-3.7,1.2-7.2,1.8-10.9c1.3-8.3,4-15.7,6.6-23.7
			c2.5-7.8,4.9-13.6,9.7-20.3c2.5-3.5,10.8-15.9,6.8-19.5c-5.6,10.8-12.1,19.2-20.6,27.7c-6.5,6.6-12.9,15.4-21.1,20
			c-9,5.1-20,8.1-29.9,10.9c-4.7,1.3-8.6,4.2-13.7,4.7c-5.5,0.6-11.1-0.1-16.5-1.3c-1.5-0.3-5.9-2.6-7.3-2.5c-2,0.2-4.9,3.8-7.2,4.4
			c-5.4,1.6-9.1-1.4-13.2-4.2c-4.5-3-5.8-3.8-10.9-4.2c-6.3-0.4-12.4-2.6-18.6-4c-10.9-2.3-20.1-7.1-30-12.1
			c-11.3-5.7-21-13.6-29.6-22.9c-12.6-13.7-30.1-51.5-9.5-64.8c-12.1-1.6-23.2-6.8-24.6-20.2c-0.8-7,0.7-14.8,2.5-21.6
			c0.8-3.1,1.8-6.2,2.7-9.2c0.7-1,1.1-2.2,1.1-3.4c0.4-1.6-0.2-2.4-1.9-2.4c-3.2-3.7-5.6-6.9-6.2-12.1c-0.2-1.6-0.4-4.2,0.8-5.6
			c0.6-0.6,1.2-0.9,2-1.1c1.9,0.1,2.4-0.8,1.6-2.7c0.9-2.7-0.4-4.8,3-5.9c1.1,0.2,2.2,0.5,3.3,0.7c1.4,0.6,2.3,0.2,2.7-1.3
			c3.2-1.2,1.7-3.1,6.1-1.5c2.6,1,5.2,2.6,7.1,4.6c2.4-1.5-3.1-10.9-3.3-13.9c-0.4-7.1,2.5-12.9,6.4-18.8
			c7.5-11.3,18.1-21,28.4-29.8c19.9-16.7,40.7-32.7,63.2-46c-9.3-6.3-20.1-8-31.1-5.1c-10.2,2.7-18.4,7.6-27.7,11.9
			c-8.7,4-17.8,5.6-20.6-5.2c-3.1-12.2,6.8-16.7,15.6-22.1c-2.2-1.6-9.5-0.5-12.2-0.3c-6.1,0.4-12,1.8-17.9,3
			c-2.9,0.6-5.5,0.4-8.3,1c-4.2,0.8-8.6,1.8-12.9,3c-10.1,2.8-20.2,7.2-28.9,13c-7.6,5-12.8,12.1-18.9,18.7
			c-6.9,7.5-13.6,14.8-23.9,17.5c-4.8,1.3-10.5,2.4-13.9-1.8c-3.2-3.9-3.4-8.7-3.3-13.5c0.2-10.6,5.5-22.1,11.5-30.8
			c6.6-9.4,15.4-14.8,23.8-22.4c-12.1,0.8-23.7,7.1-34.8,11.4c-2.3,0.9-4.7,1.9-7,2.8c-2.5,0.9-4.2,0.3-6.6,0.8
			c-5.5,0.9-10.2,3.2-15.5-0.4c-10.1-6.8,0-20.8,7-25c9.7-5.9,19.5-11,30.1-15.2c-5.8-6.1-0.8-14.9,4.5-19.3
			c6.7-5.5,15.3-8.7,23.4-11.6c6.4-2.3,12.7-4.6,19.4-6c7-1.5,15.2-3.7,22.3-3.5c6.7,0.2,12.6-0.9,19.3-1.1c5.6-0.2,11.2,0,16.8-0.2
			c15.1-0.4,30.2,0.6,45,1.7c-11.7-33.6,65.3-23.2,81.7-18.8c14.9,4,32,8.6,44.6,18.1c5.3,4,10.4,8.6,15.1,13.2
			c7,6.9,10.8,15.9,14.5,24.8c9.3-4.5,18.2-9.4,28.5-11.6c9.7-2.1,19.7-5,29.4-6.6c7.4-1.2,18.2-2,24.5,3.1
			c6.8,5.6,10.3,14.3,14.4,21.8c19.5-18.1,41.2-31.4,68.9-30.5c27.2,0.9,45,23.9,48.3,48.9c3.6,27.5-8.8,56.3-25.7,77.6
			c-7.6,9.6-15.4,18.8-25.6,25.9c-5.1,3.5-10.4,7.4-15.9,10.2c-2.8,1.4-5.8,2.6-8.7,3.7c-1.3,0.5-2.7,1-4,1.3
			c-3.9,0.9-3.1-0.3-4.6,3c-1.2,2.7-1,7.4-1.5,10.4c-0.6,3.4-0.9,6.9-1.8,10.2c-1.5,5.8-3,11.5-4.8,17.2
			c-3.4,10.8-8.1,21.6-13.8,31.5c4.8,2.1,11.6,2.3,16.7,2.9c5.6,0.7,11.2,2.1,16.9,3.7c11.6,3.2,22,5.9,33,10.6
			c11.5,5,21.7,12.4,32.7,18.2c10.1,5.4,20.4,12.2,29.8,18.7c2.2,1.5,3.6,2.9,5.4,4.8c1.8,2,2.4,2.4,4.6,4.1c1,0.8,3.8,4.7,5,4.9
			c2,0.3,1.7-1.2,3.3-3.3c3.3-4.3,7.9-7.6,11.2-12c2.7-3.7,5.6-7.4,8.5-10.6c7.1-7.6,12.9-16.1,17.9-25.3c2.6-4.8,5.4-9.3,8.2-13.8
			c2.8-4.5,7.8-10.4,13.5-10.1c-0.5-2.3-1.9-2.7,0.6-4.1c1.6-0.9,4.7,0.5,5.9,1.5c3.3,2.4,3.4,7.1,3.2,10.6
			c-0.5,9.1-2.5,18.1-5.2,26.6c-3.2,10.3-7.3,19.4-11.7,29.3c-3.5,7.9-7.9,18.2-16.7,21.8c5.9,8.3,3.1,15-0.9,23.8
			c-2.9,6.4-6.7,13.1-12.5,17.3c-6.5,4.8-13.6,0.7-20.5-2.4c-4.1-1.9-16.7-6.4-14.2-12.3c-3.2-0.4-5.1-2.7-8-3.4
			c-3-0.7-2.5,0.5-5.7,0.9c-2.5,0.3-6.2-1.8-8.5-2.6c-3.9-1.3-7.7-2.6-11.6-3.9c-10.9-3.7-21.6-7.3-32.6-10.3
			c-20.5-5.5-41.2-8.6-61.6-13.5c-4.1-1-8.2-1.9-12.4-2.7c-0.9-0.2-5.4-0.4-6-1.3c-1-1.6,2-10.7,2.3-12.5
			c1.7-12.1,1.1-25.4-1.2-37.4c-1-5-5.4-11.4-5.3-16.3c0-3.3,3-6.8,4.7-9.8c4.3-7.3,8.8-15.2,11.9-22.8c4.8-11.6,7.8-24.8,10-37.2
			c1.1-6.5,2.4-13.5,2.7-20.1c0.2-5-0.2-10.3,0.6-15.4c-2.8,0.3-6.8,1.7-9.4,0.2c-3.2-1.9-4.1-7.5-3.7-10.8
			c-11,1.9-10.6-8.4-9.9-16.4c-19.9,0,5.6-29,8.8-35.2c1.5-2.9,1.4,0.4,0.8-4.1c-0.3-1.9-1.6-4.1-2.4-5.9c-1.7-3.9-3.5-7.8-5.4-11.5
			c-4.1-8-8.7-15.7-13.7-23.2c-4.5,3.1-8.6,6.8-12.4,10.7c2.4-6.2,9.9-14,6.7-21.1c-2.9-6.6-12.8-6.1-18.6-4.9
			c-15.8,3.3-30.9,8-45.9,13.5c4.7,2.6,11.8,0.6,16.4-1.4c5.7-2.5,11.9-5.1,18.1-6.4c5.4-1.1,12.4-0.8,10.9,6.4
			c-1.3,5.8-7,11.3-10.8,15.6c-8.4,9.5-18.8,16.9-29.1,24.2c-11.1,7.9-21.7,16.5-32.9,24.2c-20.2,13.9-42,25.9-62.9,38.9
			c-10.9,6.7-23.2,12.1-35,17.1c-13,5.5-25.4,11.4-38.8,15.7c-7.5,2.4-14.9,4.4-22.2,7.1c-4.6,1.7-12.6,5.2-15.7,0.1
			c-6.2-10.3,16.2-24,22.3-30.3c4.2,4-16.6,19-15,24.9c1.3,4.6,6.2-1.3,8.6-2.6c3.9-2,8.4-3.1,12.3-5.4c8-4.8,17.4-10.2,19.2-20.1
			c-1.3-1.3-1.3-2.5,0-3.6c0.6-0.7,1-1.4,1.4-2.2c0.6-1.5,0.8-3.5,1.1-5.1c0.9-4.8-1.4-9.4,0.7-14.1c-12.3,9.1-24.1,19.5-35.7,29.4
			c-10.5,8.9-21.4,20.5-25.2,33.8c-0.5,1.7-1.3,3.6-1.2,5.4c0.2,3.5,0.5,2.8,3.4,3.9c2.9,1.1,7.1,1,10.2,1.2c1.8,0.1,9.7-1.8,8.1,2
			c-0.9,2.2-6.4,2.1-8.3,2.3c-4.9,0.5-7.6,0-5.3,5.2c1,2.3,3.2,3.9,4.8,5.8c4.6,5.1,7.1,12.8,10.8,18.7c4.1,6.8,8.7,13.2,13.5,19.5
			c2,2.6,4.7,7.5,7.4,9.3c2.6,1.7-0.5,1.6,3.8,0.9c1.9-0.3,3.6-1.5,5.4-1.9c10.7-2.6,21.7-5.4,32.8-8.6c14.1-4,29-7.5,42.5-13.3
			c12.1-5.2,24.1-11.4,36.3-16.7c3.6-1.5,7.1-2.6,9.9-5.4c3.3-3.4,6.1-7.9,9.2-11.6c5.3-6.3,10.1-12.6,15.7-18.6
			c4.2-4.4,11.7-12.6,17.6-14.4c11.3-3.3,5.2,13.5,3.8,17.8c2.7,0.6,4-2.8,7.2-1.8c3.7,1.2,4.1,6,4.6,9.1c0.1,0.8-1,2.3-0.7,3.1
			c0.1,0.2,2.5,1.7,3,2.3c1.7,2.4,1.4,5.3,0.7,7.8c-3.3,13.3-15.2,23-23.9,32.8c3.9-0.7,6.8-2.9,10.5-4c3.5-1,6.9-1,10.4-1.3
			c3.6-0.3,7.2-1.6,10.9-1.7C527.2,290.5,530.9,291.6,534.8,292"/>
		<path stroke="currentColor" fill="none" id="ink-layer_00000051341570374911289880000003102929603245091984_" class="st1" d="M122.1,172.5c-2.2,1.4-2.8,2.7-2.8,5.9
			c0,1.3,0.1,6.2,1.9,6C123,184.3,122.1,174.2,122.1,172.5 M111,180.5c1-10.2,4.8-20.6,13.8-27c2.2-1.6,4.7-1.5,7.1-2.5
			c1.5-0.6,3.8-3.4,5.4-3c6.1,1.2-0.9,9.2-2,11.3c-3.2,6.5-3,12.2-2.9,19.2c0.1,5.3,1.2,14.3-1.5,19.1c-2.9,5.1-9.2,1.8-12.7-1.2
			C113.8,192.4,110.4,186.3,111,180.5"/>
		<path stroke="currentColor" fill="none" id="ink-layer_00000103255336498578513400000011685622497228376241_" class="st1" d="M218,210.7c0,5.7,4.7,1.8,4.5-2.2
			C222.3,202.5,217.8,206.2,218,210.7 M243,179.2c-5.2,4.6-9.1,7.1-10.1,14.1c-0.8,5.3,0,10.6,0,15.9c0.1,9-7.3,18.4-15.2,8.1
			c-5.8-7.5-3.7-19.3,1-26.8c2.5-3.9,6-7.9,10.1-10.3C231.8,178.3,240.5,174.7,243,179.2"/>
		<path stroke="currentColor" fill="none" id="ink-layer_00000111182140233849002810000009123214964383029178_" class="st1" d="M171,317.2c-0.6,1.4-2,7.1,0.9,5.8
			C174.4,321.9,172.8,318.1,171,317.2 M155.9,299.7c-0.4-2.1-0.3-15.5,3.5-14.5c2.9,0.8,3.4,7.6,4.6,10c4.5,8.9,14.7,14.4,18.3,23.6
			c3.9,10.2-8,10.5-14.3,6.4C160.5,320.3,156.1,308.3,155.9,299.7"/>
		<path stroke="currentColor" fill="none" id="ink-layer_00000059307489400321928200000011248086354047209873_" class="st1" d="M146.7,244.9c1.6-2.2,1.8-3.3,0.9-5.2
			C146.4,240.9,146.6,242.7,146.7,244.9 M147.9,254.5c-8.5,0.9-8.9-14.4-7.5-19.7c1.2-4.2,3.6-8.7,6.2-12.1c0.5-0.7,5.4-6.9,6.4-6.9
			c3.7-0.1,2.7,4,2.3,5.6c-1.3,4.8-1.7,8.8-1.4,14.1C154.2,241.2,157,254.7,147.9,254.5"/>
		<path stroke="currentColor" fill="none" id="ink-layer_00000163792176974575913210000015228893340658934423_" class="st1" d="M532.9,121.5
			c-12.1,10-23.6,20.8-36.8,29.6c-6.5,4.3-13.2,8.1-19.6,12.4c-3.3,2.2-6.6,4.2-10.3,5.8c-3.2,1.4-5.3,1.6-2.6-1.8
			c1.8-2.3,5.8-3.9,8.2-5.5c3.7-2.5,7.3-5.3,11.2-7.5c6.9-3.9,13.8-7.1,20.2-11.8c5.7-4.2,11.5-8.4,16.9-12.9
			C522.4,127.9,530.1,119,532.9,121.5"/>
		<path stroke="currentColor" fill="none" id="ink-layer_00000101071431272273448140000000352073636233519259_" class="st1" d="M533.2,157.6c5.5,4.6-8.2,17.1-11.3,20
			c-3.3,3-6.9,5.7-10.5,8.3c-1.3,0.9-8.1,7.2-9.8,6.7c-3.4-1,1.1-5.1,2.2-6.1c3.8-3.4,7.7-6.8,11.4-10.3c3.3-3.2,7-6.1,10.2-9.4
			C528,164.2,530.2,159.7,533.2,157.6"/>
		<path stroke="currentColor" fill="none" id="ink-layer_00000036942741071758243790000001254121743468071552_" class="st1" d="M129.2,342.4c-1.4-3.2-4,0.4-2.7,2
			C127.7,345.9,129,343,129.2,342.4 M120.8,336c0.8-4.8,2.5-7.4,7.1-3.3c3.1,2.8,9.4,10.7,8.8,15.1c-0.8,5.7-7.2,4.1-10.5,1.1
			C122.9,345.8,121.4,340.2,120.8,336"/>
		<path stroke="currentColor" fill="none" id="ink-layer_00000154413247806048221660000012456680502745950897_" class="st1" d="M130.8,429.8
			c-5.6-0.4-10.3-4.6-12.7-9.6c-2-4.1-3.9-10.8,3.1-8.6C125.8,413,143.4,430.5,130.8,429.8"/>
		<path stroke="currentColor" fill="none" id="ink-layer_00000003102298318504367710000012095716471640405915_" class="st1" d="M198.4,402.8c-4.3,1-8.6-1.8-11.2-5
			c-1.6-2-5.5-8.8-3.6-11.6c2.7-3.9,6.8,4,8.2,5.5C194,394.2,201.1,398.9,198.4,402.8"/>
		<path stroke="currentColor" fill="none" id="ink-layer_00000120559419898557130940000000314996160491673261_" class="st1" d="M202.2,295.6c-3.4-1.5-6.5-3.4-7.9-7.1
			c-0.9-2.3-1.6-9.4,2.2-9.3C201,279.2,211.2,294.9,202.2,295.6"/>
		<path stroke="currentColor" fill="none" id="ink-layer_00000093178231794517351840000013132994433656823950_" class="st1" d="M178.6,222.5c4.5-0.1,5.6,2.4,6.2,5.9
			c0.4,2.4,2.5,10.5,0.3,12.2c-3.1,2.4-8-3.1-9-5.2C174.1,231,177,226.6,178.6,222.5"/>
		<path stroke="currentColor" fill="none" id="ink-layer_00000150103731855459056330000018029843489185553827_" class="st1" d="M256.3,465.7c2.2,1,7.2,3.2,5.3,6.6
			c-2,3.5-7.7,0.1-9.9-1.4c-0.9-0.6-6.6-4.9-6.4-6.3C245.8,461.5,253.7,465.4,256.3,465.7"/>
		<path stroke="currentColor" fill="none" id="ink-layer_00000165224352925143772050000002760054467315564944_" class="st1" d="M111.2,244.5c1.5,3.7,3.2,16.4-4.7,9.6
			c-2.4-2.1-2.8-4.7-1.9-7.6C105.7,242.3,107.5,243.1,111.2,244.5"/>
		<path stroke="currentColor" fill="none" id="ink-layer_00000074409493656257467000000001331431040661945493_" class="st1" d="M531.1,197.2c-1.8-3.5,2.6-5.8,4.9-8.1
			c1.5-1.5,7.9-9.5,9.9-9.1C550.2,181,533.2,195.6,531.1,197.2"/>
		<path stroke="currentColor" fill="none" id="ink-layer_00000164480345266506179680000003718225074103822502_" class="st1" d="M178.5,452.3c4.1-0.7,5.1,3.9,7.8,5.8
			c1.1,0.8,5.1,1.6,4.3,3.4C188.5,466.2,178.3,455.4,178.5,452.3"/>
		<path stroke="currentColor" fill="none" id="ink-layer_00000030463290581931010020000016212578293456967316_" class="st1" d="M213.4,345.7c2.8-1.2,11,5.1,8.7,7.8
			C218.6,357.6,213.6,347.9,213.4,345.7"/>
		<path stroke="currentColor" fill="none" id="ink-layer_00000152258840962336158620000012606857526911920528_" class="st1" d="M273.3,436.5c-2.1,0.2-10.8-2.5-7.6-6.1
			C268,427.9,274.1,434.2,273.3,436.5"/>
		<path stroke="currentColor" fill="none" id="ink-layer_00000158000996377511432590000010491076334891764867_" class="st1" d="M168.6,419.2c-2.1,0.8-9.5-0.9-7.1-4
			C163.7,412.2,168.6,416.7,168.6,419.2"/>
		<path stroke="currentColor" fill="none" id="ink-layer_00000062881461107773407150000009658114497905744561_" class="st1" d="M229.3,432.8c2.4-0.2,4.1,1.2,4.6,3.6
			C230.9,436.9,230,436.2,229.3,432.8"/>
		<path stroke="currentColor" fill="none" id="ink-layer_00000048466284024240352490000001920279512340463276_" class="st1" d="M542.1,82.7c1,0,2,0,3,0
			C544.1,82.7,543.1,82.7,542.1,82.7"/>
		<path stroke="currentColor" fill="none" id="ink-layer_00000080895673346918904160000005239813063334464955_" class="st1" d="M526.1,290.4c-1.5,0-3,0-4.6,0
			C523.1,290.4,524.6,290.4,526.1,290.4"/>
		<path stroke="currentColor" fill="none" id="ink-layer_00000135689317918761993950000009440682418080104587_" class="st1" d="M319,47.3c-0.1,1.5-0.1,3-0.2,4.5
			C318.9,50.2,318.9,48.7,319,47.3"/>
		<path stroke="currentColor" fill="none" id="ink-layer_00000141445926036186921480000013762944160976852109_" class="st1" d="M789.3,300.8c0.5,1.7-0.2,1.9-2.1,0.8
			C787.9,301.4,788.6,301.1,789.3,300.8"/>
		<path stroke="currentColor" fill="none" id="ink-layer_00000166669135914899241240000010593277675452451491_" class="st1" d="M746.2,430.9c0.8,0,1.5,0,2.3,0
			C747.7,431,747,430.9,746.2,430.9"/>
		<path stroke="currentColor" fill="none" id="ink-layer_00000104706437863834528820000000930830696279426204_" class="st1" d="M602,310.9c-1.3,1-2.5,1.1-3.8-0.1
			C599.5,310.9,600.8,310.9,602,310.9"/>
		<path stroke="currentColor" fill="none" id="ink-layer_00000005262802753116656330000003108273394615767219_" class="st1" d="M573.6,183.7c0,1.2-0.1,2.5-0.1,3.7
			C573.5,186.2,573.6,185,573.6,183.7"/>
		<path stroke="currentColor" fill="none" id="ink-layer_00000093167092013594527880000002554262793735282106_" class="st1" d="M639.2,68.7c-1.3,0-2.5,0-3.8,0
			C636.7,68.2,637.9,68.3,639.2,68.7"/>
		<path stroke="currentColor" fill="none" id="ink-layer_00000010280471735577472830000003046091673019708069_" class="st1" d="M268.1,53.5c-1.3,0.1-2.5,0.1-3.8,0.2
			C265.5,53.6,266.8,53.6,268.1,53.5"/>
		<path stroke="currentColor" fill="none" id="ink-layer_00000034773092418558316490000000358050255284661921_" class="st1" d="M299.2,53.7c-1-0.1-2-0.2-3-0.3
			C297.2,53.6,298.2,53.6,299.2,53.7"/>
		<path stroke="currentColor" fill="none" id="ink-layer_00000055690095282416820330000002219658768569866669_" class="st1" d="M315.9,54.9c-1,0.4-2,0.6-3,0
			C313.9,54.9,314.9,54.9,315.9,54.9"/>
		<path stroke="currentColor" fill="none" id="ink-layer_00000010270781285901998910000004329799643474243735_" class="st1" d="M225.6,56.9c-1.3,0.3-2.5,0.5-3.8,0.8
			C223,57.4,224.3,57.2,225.6,56.9"/>
		<path stroke="currentColor" fill="none" id="ink-layer_00000000180625663969631170000013370784862083430565_" class="st1" d="M574.4,360.5c0,0.7-0.1,1.5-0.1,2.2
			C574.3,362,574.3,361.2,574.4,360.5"/>
		<path stroke="currentColor" fill="none" id="ink-layer_00000134957649262582158770000006413710748067252374_" class="st1" d="M156.1,300.1c0,0.5,0,1,0,1.5
			C156.1,301.1,156.1,300.6,156.1,300.1"/>
		<path stroke="currentColor" fill="none" id="ink-layer_00000011029137715738853670000004566141440225790358_" class="st1" d="M794,297.4l-3.8,0
			C791.5,296.5,792.8,296.6,794,297.4"/>
		<path stroke="currentColor" fill="none" id="ink-layer_00000034056398708609520530000010902077314822610598_" class="st1" d="M534.5,292.1c-1-0.2-2-0.3-3-0.5
			C532.4,291.8,533.5,291.9,534.5,292.1"/>
		<path stroke="currentColor" fill="none" id="ink-layer_00000055690059064621716560000001891043791342720694_" class="st1" d="M256.7,465.6c-1.3-0.2-2.5-0.5-3.8-0.7
			L256.7,465.6z"/>
		<path stroke="currentColor" fill="none" id="ink-layer_00000041996678929929957170000006517226138495575950_" class="st1" d="M512.1,251.6c0-0.7,0-1.5-0.1-2.2
			C512.1,250.1,512.1,250.8,512.1,251.6"/>
		<path stroke="currentColor" fill="none" id="ink-layer_00000067938009271996167340000001523040859964478901_" class="st1" d="M271.9,53.7c-0.8-0.1-1.5-0.2-2.3-0.3
			C270.3,53.5,271.1,53.6,271.9,53.7"/>
		<path stroke="currentColor" fill="none" id="ink-layer_00000009554718299616415260000014288122488074591132_" class="st1" d="M396.3,35.3c-0.8-0.2-1.5-0.5-2.3-0.7
			C394.8,34.8,395.6,35.1,396.3,35.3"/>
		<path stroke="currentColor" fill="none" id="ink-layer_00000047018490056995477010000003323238497452428178_" class="st1" d="M486.6,538.3c0.5,0,1,0.1,1.5,0.1
			C487.7,538.4,487.2,538.3,486.6,538.3"/>
		<path stroke="currentColor" fill="none" id="ink-layer_00000104679486618263853840000002839420499198977155_" class="st1" d="M138.3,137.8c0.8,0,1.5,0,2.3,0.1
			C139.8,137.9,139,137.9,138.3,137.8"/>
		<path stroke="currentColor" fill="none" id="ink-layer_00000073700047484720871200000004327057735922419841_" class="st1" d="M647.6,69.4c-1.3-0.1-2.5-0.2-3.8-0.3
			C645,69.2,646.3,69.3,647.6,69.4"/>
		<path stroke="currentColor" fill="none" id="ink-layer_00000086686299215067825930000002659366919316834225_" class="st1" d="M247.6,65.9c-1.8,0-3.5,0-5.3,0
			C244,65.9,245.8,65.9,247.6,65.9"/>
		<path stroke="currentColor" fill="none" id="ink-layer_00000157304674765562248280000013906433682694066607_" class="st1" d="M606.2,219.5c0,1.2,0,2.5,0.1,3.7
			C606.2,222,606.2,220.8,606.2,219.5"/>
		<path stroke="currentColor" fill="none" id="ink-layer_00000066480741866425557040000016445376599034539939_" class="st1" d="M513.2,486.5c-1,0-2,0-3,0
			C511.2,486.5,512.2,486.5,513.2,486.5"/>
		<path stroke="currentColor" fill="none" id="ink-layer_00000016784260858708130810000004354919652916876189_" class="st1" d="M621,91.4c1.5-0.2,3-0.3,4.6-0.5
			C624.1,92.2,622.5,91.3,621,91.4"/>
		<path stroke="currentColor" fill="none" id="ink-layer_00000059990833748920061630000003535387246028101027_" class="st1" d="M504.9,486.9c-0.8,0-1.5-0.1-2.3-0.1
			C503.4,486.9,504.1,486.9,504.9,486.9"/>
		<path stroke="currentColor" fill="none" id="ink-layer_00000165194591077370664200000012281124315108093595_" class="st1" d="M478.6,499.9c0,1.2,0.1,2.5,0.1,3.7
			C478.7,502.4,478.7,501.2,478.6,499.9"/>
		<path stroke="currentColor" fill="none" id="ink-layer_00000047766957505802318570000007440147524020226185_" class="st1" d="M594.4,137.2c1-0.1,2-0.2,3-0.3
			C596.5,137.6,595.5,137.2,594.4,137.2"/>
		<path stroke="currentColor" fill="none" id="ink-layer_00000110434438114605203940000015931246991668411568_" class="st1" d="M262.7,335.6c1,0.2,2,0.4,3,0.5
			C264.8,336,263.8,335.8,262.7,335.6"/>
		<path stroke="currentColor" fill="none" id="ink-layer_00000057125051857319447990000001087611795897400474_" class="st1" d="M420.6,139.4c1.3-1.1,2.5-0.9,3.8,0
			C423.1,139.4,421.9,139.4,420.6,139.4"/>
		<path stroke="currentColor" fill="none" id="ink-layer_00000001645685007815421970000000301431794478084030_" class="st1" d="M373.1,177c0-0.5,0.1-1,0.1-1.5
			C373.2,176,373.2,176.5,373.1,177"/>
		<path stroke="currentColor" fill="none" id="ink-layer_00000157303900956482945620000008089055410767777424_" class="st1" d="M594,162.8c0,1,0,2,0,3
			C594.1,164.8,594,163.8,594,162.8"/>
		<path stroke="currentColor" fill="none" id="ink-layer_00000109735451717674841350000015978436745126379906_" class="st1" d="M259.2,318.7c1.7,0.6,5,2.2,7,2
			c1.6-0.2,2.8-2,4.3-2c4,0,3.3,4.6,1.3,7C266.5,332.4,254.7,325.2,259.2,318.7"/>
		<path stroke="currentColor" fill="none" id="ink-layer_00000097482343164791467630000007282755412073399726_" class="st1" d="M275.6,294.8c5.5,1.4,2.8,13.3-1.9,14.1
			c-5.4,1-6.4-8.7-5.3-12.2c2.8,1.6,1.1,7.5,4.6,5.9C275.3,301.6,275,296.8,275.6,294.8"/>
	</g>
</g>
</svg>
