<?xml version="1.0" standalone="no"?>
<!DOCTYPE svg PUBLIC "-//W3C//DTD SVG 20010904//EN"
 "http://www.w3.org/TR/2001/REC-SVG-20010904/DTD/svg10.dtd">
<svg version="1.0" xmlns="http://www.w3.org/2000/svg"
 width="512.000000pt" height="512.000000pt" viewBox="0 0 512.000000 512.000000"
 preserveAspectRatio="xMidYMid meet">
<metadata>
Created by potrace 1.16, written by Peter Selinger 2001-2019
</metadata>
<g transform="translate(0.000000,512.000000) scale(0.100000,-0.100000)"
fill="#000000" stroke="none">
<path d="M1301 4476 c-674 -354 -1230 -652 -1238 -662 -32 -44 0 -114 52 -114
l25 0 0 -127 c0 -71 5 -144 10 -164 15 -54 51 -101 93 -124 l37 -20 0 -178 c0
-126 4 -187 14 -210 18 -44 77 -94 126 -107 l40 -11 0 -888 0 -888 -32 -7
c-49 -10 -105 -54 -128 -100 -18 -38 -20 -62 -20 -219 l0 -176 -29 -15 c-41
-22 -88 -80 -100 -123 -6 -21 -11 -97 -11 -169 0 -117 2 -132 20 -152 l21 -22
2379 0 c2367 0 2380 0 2400 20 18 18 20 33 20 153 0 72 -5 149 -11 170 -11 41
-69 112 -99 122 -16 5 -18 23 -22 188 -3 163 -6 186 -26 224 -27 51 -64 81
-119 96 l-43 11 0 888 0 887 40 11 c50 13 108 63 128 110 11 25 17 86 21 212
l6 177 35 23 c19 13 46 44 60 68 23 41 25 57 28 190 l4 145 24 1 c54 4 84 73
52 117 -7 9 -565 307 -1240 662 -915 481 -1236 645 -1260 644 -24 0 -389 -187
-1257 -643z m2288 -51 l1008 -530 -1019 -3 c-560 -1 -1476 -1 -2037 0 l-1019
3 1012 532 c556 293 1019 532 1029 530 10 -1 471 -240 1026 -532z m1215 -706
c26 -20 26 -22 26 -150 0 -116 -2 -131 -20 -149 -20 -20 -33 -20 -2250 -20
-2217 0 -2230 0 -2250 20 -18 18 -20 33 -20 149 0 128 0 130 26 150 l27 21
2217 0 2217 0 27 -21z m-3584 -512 l0 -44 -262 -6 c-145 -4 -325 -7 -400 -7
l-138 0 0 50 0 50 400 0 400 0 0 -43z m790 -97 c0 -184 11 -233 64 -286 26
-26 57 -46 84 -53 l42 -12 0 -888 0 -888 -32 -7 c-49 -10 -105 -54 -128 -100
-18 -38 -20 -62 -20 -214 l0 -172 -330 0 -330 0 0 172 c0 152 -2 176 -20 214
-23 46 -79 90 -128 100 l-32 7 0 888 0 888 40 11 c49 13 108 63 126 107 10 23
14 82 14 203 l0 170 325 0 325 0 0 -140z m950 97 l0 -44 -262 -6 c-145 -4
-325 -7 -400 -7 l-138 0 0 50 0 50 400 0 400 0 0 -43z m790 -97 c0 -184 11
-233 64 -286 26 -26 57 -46 84 -53 l42 -12 0 -888 0 -888 -32 -7 c-49 -10
-105 -54 -128 -100 -18 -38 -20 -62 -20 -214 l0 -172 -330 0 -330 0 0 172 c0
152 -2 176 -20 214 -23 46 -79 90 -128 100 l-32 7 0 888 0 888 40 11 c49 13
108 63 126 107 10 23 14 82 14 203 l0 170 325 0 325 0 0 -140z m950 97 l0 -44
-262 -6 c-145 -4 -325 -7 -400 -7 l-138 0 0 50 0 50 400 0 400 0 0 -43z
m-3483 -234 c-4 -21 -14 -44 -24 -50 -13 -10 -105 -13 -379 -13 l-363 0 -15
22 c-9 12 -16 35 -16 50 l0 28 401 0 402 0 -6 -37z m1740 1 c-11 -67 8 -64
-397 -64 -405 0 -386 -3 -397 64 l-6 36 403 0 403 0 -6 -36z m1740 0 c-11 -67
8 -64 -397 -64 -405 0 -386 -3 -397 64 l-6 36 403 0 403 0 -6 -36z m-3667
-1104 l0 -890 -210 0 -210 0 0 890 0 890 210 0 210 0 0 -890z m1740 0 l0 -890
-210 0 -210 0 0 890 0 890 210 0 210 0 0 -890z m1740 0 l0 -890 -210 0 -210 0
0 890 0 890 210 0 210 0 0 -890z m-3311 -1053 c6 -8 14 -28 17 -45 l7 -32
-402 0 -401 0 0 23 c0 12 7 33 16 45 l15 22 368 0 c297 0 371 -3 380 -13z
m1740 0 c6 -8 14 -28 17 -45 l7 -32 -402 0 -401 0 0 23 c0 12 7 33 16 45 l15
22 368 0 c297 0 371 -3 380 -13z m1740 0 c6 -8 14 -28 17 -45 l7 -32 -403 0
-402 0 6 32 c12 60 -4 58 396 58 296 0 370 -3 379 -13z m-3459 -277 l0 -50
-400 0 -400 0 0 50 0 50 400 0 400 0 0 -50z m1740 0 l0 -50 -400 0 -400 0 0
50 0 50 400 0 400 0 0 -50z m1740 0 l0 -50 -400 0 -400 0 0 50 0 50 400 0 400
0 0 -50z m107 -222 c20 -19 23 -31 23 -100 l0 -78 -2270 0 -2270 0 0 80 c0 67
3 83 20 100 20 20 33 20 2247 20 l2227 0 23 -22z"/>
</g>
</svg>
