<?xml version="1.0" standalone="no"?>
<!DOCTYPE svg PUBLIC "-//W3C//DTD SVG 20010904//EN"
 "http://www.w3.org/TR/2001/REC-SVG-20010904/DTD/svg10.dtd">
<svg version="1.0" xmlns="http://www.w3.org/2000/svg"
 width="512.000000pt" height="512.000000pt" viewBox="0 0 512.000000 512.000000"
 preserveAspectRatio="xMidYMid meet">

<g transform="translate(0.000000,512.000000) scale(0.100000,-0.100000)" style = "fill: rgb(126, 55, 4);">
<path d="M267 4429 c-99 -23 -196 -103 -240 -197 -22 -47 -22 -51 -22 -602 l0
-555 33 -67 c36 -73 87 -124 161 -160 44 -22 59 -23 312 -26 l267 -3 -6 -64
c-3 -48 0 -77 13 -111 9 -25 16 -47 14 -49 -2 -1 -34 -16 -71 -33 -295 -133
-501 -406 -547 -727 -6 -39 -11 -167 -11 -285 0 -204 1 -218 23 -260 44 -87
84 -99 324 -100 l173 0 6 -27 c49 -223 209 -394 429 -459 81 -24 229 -24 310
0 220 65 380 236 429 459 l6 27 1032 -2 1031 -3 14 -55 c63 -247 281 -430 536
-447 236 -15 457 109 567 320 94 177 91 389 -6 566 -22 41 -32 67 -25 69 26 9
75 58 87 89 45 106 -25 352 -140 495 -87 109 -232 201 -366 232 -36 9 -109 16
-163 16 -96 0 -98 0 -113 28 -9 15 -91 189 -184 387 l-167 360 45 17 c59 22
108 70 138 133 22 45 24 63 24 190 0 126 -3 145 -24 190 -12 28 -40 65 -61 84
-76 66 -76 66 -430 66 -356 -1 -362 -2 -455 -70 -50 -36 -104 -110 -115 -157
l-7 -26 -115 -4 c-107 -3 -116 -5 -134 -27 -27 -33 -25 -86 6 -116 22 -23 31
-25 129 -25 l105 0 24 -54 c14 -29 41 -72 62 -94 34 -38 141 -102 171 -102 7
0 15 -8 18 -17 3 -10 100 -334 216 -720 115 -387 210 -714 210 -728 0 -14 -11
-37 -25 -50 l-24 -25 -646 0 c-557 0 -651 2 -682 15 -93 39 -151 116 -160 212
-4 50 5 94 68 323 67 244 73 273 73 365 1 94 -1 105 -32 167 -38 77 -92 130
-171 167 l-56 26 -317 3 -318 3 15 28 c32 62 36 151 33 651 -4 552 -2 537 -76
635 -46 61 -122 108 -198 124 -69 13 -939 14 -997 0z m1020 -191 c79 -52 78
-43 81 -568 2 -256 0 -488 -3 -517 -7 -60 -36 -108 -85 -141 l-34 -23 -485 3
-486 3 -34 24 c-18 13 -42 42 -52 65 -17 38 -19 75 -19 541 0 464 2 503 19
540 10 22 28 48 39 58 50 45 72 47 558 44 l460 -2 41 -27z m2698 -513 c24 -23
25 -30 25 -139 0 -107 -2 -117 -24 -143 l-24 -28 -276 -3 c-306 -3 -341 1
-392 52 -59 59 -66 144 -19 217 43 66 55 69 388 69 l298 0 24 -25z m55 -1027
c140 -299 265 -577 279 -618 22 -69 25 -93 29 -291 4 -206 3 -218 -18 -268
-27 -61 -92 -122 -148 -139 -30 -9 -513 -12 -1942 -12 l-1902 0 5 233 c5 259
12 298 76 432 101 211 280 358 505 415 75 19 113 20 673 20 561 0 594 -1 589
-17 -60 -209 -110 -413 -114 -470 -11 -172 83 -327 248 -407 l65 -31 680 -3
c613 -2 684 -1 724 14 94 36 161 131 161 230 0 37 -54 231 -205 735 -113 376
-208 692 -211 702 -5 16 5 17 124 17 l129 0 253 -542z m-1937 108 c21 -8 48
-22 59 -33 21 -18 57 -88 58 -110 0 -10 -130 -13 -615 -13 l-616 0 -24 25
c-15 14 -25 36 -25 53 0 36 32 79 63 85 12 2 256 5 542 5 415 1 528 -2 558
-12z m2462 -520 c189 -50 340 -211 374 -400 19 -106 40 -96 -203 -96 l-213 0
-6 118 c-6 122 -27 215 -72 323 -14 32 -25 61 -25 64 0 10 96 5 145 -9z m265
-714 c160 -166 157 -427 -7 -591 -170 -169 -432 -168 -601 1 -52 52 -112 157
-112 196 0 16 8 20 50 24 73 7 187 67 244 128 58 62 105 160 113 234 l6 56
130 0 131 0 46 -48z m-3144 -420 c-72 -203 -271 -328 -468 -293 -165 29 -287
133 -344 293 l-13 38 419 0 419 0 -13 -38z"/>
<path d="M900 2037 c-52 -26 -60 -89 -18 -134 l21 -23 377 0 377 0 20 23 c11
12 24 32 27 44 9 30 -19 81 -50 93 -40 16 -723 13 -754 -3z"/>
<path d="M899 1695 c-51 -28 -59 -86 -16 -132 l20 -23 377 0 377 0 20 23 c43
47 35 105 -18 133 -40 20 -721 20 -760 -1z"/>
</g>
</svg>
