<?xml version="1.0" standalone="no"?>
<!DOCTYPE svg PUBLIC "-//W3C//DTD SVG 20010904//EN"
 "http://www.w3.org/TR/2001/REC-SVG-20010904/DTD/svg10.dtd">
<svg version="1.0" xmlns="http://www.w3.org/2000/svg"
 width="512.000000pt" height="512.000000pt" viewBox="0 0 512.000000 512.000000"
 preserveAspectRatio="xMidYMid meet">
<metadata>
Created by potrace 1.16, written by Peter Selinger 2001-2019
</metadata>
<g transform="translate(0.000000,512.000000) scale(0.100000,-0.100000)"
fill="#000000" stroke="none">
<path d="M2472 5100 c-48 -29 -2330 -2236 -2347 -2270 -24 -46 -19 -126 10
-176 43 -72 81 -84 278 -84 l167 0 0 -1217 c0 -1166 1 -1220 19 -1259 10 -23
34 -52 52 -65 l34 -24 666 -3 665 -2 34 22 c44 30 69 66 80 114 5 21 10 346
10 722 l0 682 420 0 420 0 0 -682 c0 -376 5 -701 10 -722 11 -48 36 -84 80
-114 l34 -22 665 2 666 3 34 24 c18 13 42 42 52 65 18 39 19 93 19 1258 l0
1216 178 4 c162 3 180 5 212 25 71 44 103 159 65 233 -17 34 -2299 2241 -2347
2270 -45 27 -131 27 -176 0z m1224 -1257 l1127 -1088 -174 -5 c-202 -6 -228
-15 -266 -90 l-23 -44 0 -1218 0 -1218 -595 0 -595 0 0 683 c0 375 -5 700 -10
721 -10 45 -34 81 -74 110 -27 21 -38 21 -526 21 -488 0 -499 0 -526 -21 -40
-29 -64 -65 -74 -110 -5 -21 -10 -346 -10 -721 l0 -683 -595 0 -595 0 0 1218
0 1218 -22 44 c-39 75 -65 84 -267 90 l-173 5 1126 1088 c620 598 1131 1087
1136 1087 5 0 517 -489 1136 -1087z"/>
</g>
</svg>
