<?xml version="1.0" standalone="no"?>
<!DOCTYPE svg PUBLIC "-//W3C//DTD SVG 20010904//EN"
 "http://www.w3.org/TR/2001/REC-SVG-20010904/DTD/svg10.dtd">
<svg version="1.0" xmlns="http://www.w3.org/2000/svg"
 width="862.000000pt" height="400.000000pt" viewBox="0 0 862.000000 400.000000"
 preserveAspectRatio="xMidYMid meet">
<metadata>
Created by potrace 1.16, written by Peter Selinger 2001-2019
</metadata>
<g transform="translate(0.000000,400.000000) scale(0.100000,-0.100000)"
style = "fill: rgb(126, 55, 4);">
<path d="M3745 3750 c-197 -21 -365 -61 -530 -127 -96 -38 -224 -106 -255
-135 -11 -10 -23 -18 -28 -18 -6 0 -53 -41 -106 -91 -259 -245 -376 -584 -376
-1088 0 -214 16 -391 65 -731 32 -214 112 -602 226 -1085 73 -310 83 -335 130
-335 10 0 26 11 35 24 15 24 12 42 -60 343 -214 903 -286 1349 -286 1775 0
207 12 330 45 480 73 330 248 560 541 710 518 266 1296 229 1778 -85 374 -245
531 -632 513 -1267 -13 -439 -82 -842 -312 -1811 -31 -130 -29 -165 11 -175
49 -12 59 12 129 305 208 872 279 1326 279 1771 0 318 -25 485 -104 702 -160
439 -576 730 -1175 823 -121 18 -409 27 -520 15z"/>
<path d="M4448 3155 c-479 -121 -679 -720 -374 -1122 79 -105 179 -176 318
-229 67 -26 84 -28 213 -29 127 0 147 3 213 27 205 74 356 231 428 443 36 107
44 267 19 382 -53 241 -211 421 -447 509 -61 23 -92 27 -193 30 -81 2 -138 -1
-177 -11z m228 -96 c167 -23 309 -114 401 -257 209 -323 69 -758 -286 -893
-336 -126 -703 112 -750 485 -40 328 183 625 499 666 30 4 56 8 57 9 1 0 36
-4 79 -10z"/>
</g>
</svg>

